<svg width="38" height="38" viewBox="0 0 38 38" fill="none" xmlns="http://www.w3.org/2000/svg">
<circle cx="19" cy="19" r="19" fill="#EDE6E5"/>
<g clip-path="url(#clip0_795_1612)">
<path d="M24.455 18.6358C24.475 17.0775 25.2917 15.6383 26.6192 14.8225C25.7783 13.6208 24.4192 12.8867 22.9533 12.8408C21.4108 12.6792 19.9158 13.7633 19.13 13.7633C18.3292 13.7633 17.1192 12.8567 15.8158 12.8833C14.1017 12.9392 12.5417 13.89 11.7075 15.3892C9.93168 18.4642 11.2558 22.9842 12.9575 25.47C13.8092 26.6875 14.8033 28.0467 16.1058 27.9992C17.38 27.9467 17.8558 27.1867 19.3933 27.1867C20.9167 27.1867 21.3633 27.9992 22.6917 27.9683C24.0583 27.9458 24.92 26.7458 25.7417 25.5167C26.3533 24.6492 26.8242 23.6908 27.1358 22.6767C25.5125 21.99 24.4567 20.3992 24.455 18.6358Z" fill="black"/>
<path d="M21.9459 11.2058C22.6909 10.3108 23.0584 9.16083 22.9692 8C21.8309 8.12 20.7784 8.66417 20.0234 9.52417C19.2775 10.3733 18.8992 11.4833 18.9725 12.6117C20.1267 12.6233 21.2225 12.105 21.9459 11.2058Z" fill="black"/>
</g>
<defs>
<clipPath id="clip0_795_1612">
<rect width="20" height="20" fill="white" transform="translate(9 8)"/>
</clipPath>
</defs>
</svg>
