<svg width="38" height="38" viewBox="0 0 38 38" fill="none" xmlns="http://www.w3.org/2000/svg">
<circle cx="19" cy="19" r="19" fill="#EDE6E5"/>
<g clip-path="url(#clip0_795_1624)">
<path d="M27.9655 14.1565L21.652 20.47C20.948 21.1722 19.9943 21.5665 19 21.5665C18.0057 21.5665 17.052 21.1722 16.348 20.47L10.0345 14.1565C10.024 14.275 10 14.3822 10 14.5V23.5C10.0012 24.4942 10.3967 25.4473 11.0997 26.1503C11.8027 26.8533 12.7558 27.2488 13.75 27.25H24.25C25.2442 27.2488 26.1973 26.8533 26.9003 26.1503C27.6033 25.4473 27.9988 24.4942 28 23.5V14.5C28 14.3822 27.976 14.275 27.9655 14.1565Z" fill="black"/>
<path d="M20.5915 19.4095L27.442 12.5583C27.1101 12.008 26.6421 11.5525 26.083 11.2358C25.5239 10.9191 24.8926 10.7518 24.25 10.75H13.75C13.1074 10.7518 12.4761 10.9191 11.917 11.2358C11.3579 11.5525 10.8898 12.008 10.558 12.5583L17.4085 19.4095C17.8312 19.8305 18.4034 20.0669 19 20.0669C19.5965 20.0669 20.1688 19.8305 20.5915 19.4095Z" fill="black"/>
</g>
<defs>
<clipPath id="clip0_795_1624">
<rect width="18" height="18" fill="white" transform="translate(10 10)"/>
</clipPath>
</defs>
</svg>
