<svg width="38" height="38" viewBox="0 0 38 38" fill="none" xmlns="http://www.w3.org/2000/svg">
<circle cx="19" cy="19" r="19" fill="#EDE6E5"/>
<g clip-path="url(#clip0_795_1602)">
<path d="M29 19.0608C29 24.0517 25.3383 28.1892 20.5583 28.94V21.9708H22.8825L23.325 19.0875H20.5583V17.2167C20.5583 16.4275 20.945 15.6592 22.1833 15.6592H23.4408V13.2042C23.4408 13.2042 22.2992 13.0092 21.2083 13.0092C18.93 13.0092 17.4417 14.39 17.4417 16.8892V19.0867H14.9092V21.97H17.4417V28.9392C12.6625 28.1875 9 24.0508 9 19.0608C9 13.5383 13.4775 9.06084 19 9.06084C24.5225 9.06084 29 13.5375 29 19.0608Z" fill="black"/>
</g>
<defs>
<clipPath id="clip0_795_1602">
<rect width="20" height="20" fill="white" transform="translate(9 9)"/>
</clipPath>
</defs>
</svg>
