<svg width="38" height="38" viewBox="0 0 38 38" fill="none" xmlns="http://www.w3.org/2000/svg">
<circle cx="19" cy="19" r="19" fill="#EDE6E5"/>
<g clip-path="url(#clip0_795_1592)">
<path d="M19.3593 20.6987V18.2395H27.646C27.727 18.6677 27.769 19.1747 27.769 19.7237C27.769 21.5687 27.265 23.8502 25.639 25.4755C24.058 27.1217 22.0383 28 19.3623 28C14.4018 28 10.231 23.9597 10.231 19C10.231 14.0402 14.4018 9.99999 19.3623 9.99999C22.1065 9.99999 24.061 11.077 25.5295 12.4802L23.794 14.215C22.741 13.2272 21.3138 12.4592 19.3593 12.4592C15.7375 12.4592 12.9048 15.3782 12.9048 19C12.9048 22.6217 15.7375 25.5407 19.3593 25.5407C21.7083 25.5407 23.0463 24.5972 23.9035 23.74C24.5988 23.0447 25.0563 22.0517 25.2363 20.6957L19.3593 20.6987Z" fill="black"/>
</g>
<defs>
<clipPath id="clip0_795_1592">
<rect width="18" height="18" fill="white" transform="translate(10 10)"/>
</clipPath>
</defs>
</svg>
